<?xml version="1.0" encoding="UTF-8"?>
<svg width="282px" height="72px" viewBox="0 0 282 72" version="1.1" xmlns="http://www.w3.org/2000/svg" xmlns:xlink="http://www.w3.org/1999/xlink">
    <!-- Generator: Sketch 43.2 (39069) - http://www.bohemiancoding.com/sketch -->
    <title>autoScale</title>
    <desc>Created with Sketch.</desc>
    <defs></defs>
    <g id="Page-1" stroke="none" stroke-width="1" fill="none" fill-rule="evenodd">
        <g id="autoScale" transform="translate(-107.000000, 0.000000)">
            <g id="Compute/AmazonEC2/AutoScaling" transform="translate(107.000000, 2.000000)">
                <g id="Group">
                    <g fill-rule="nonzero">
                        <polygon id="Shape" fill="#9D5025" points="45.03 54.58 45.03 44.11 40.57 39.66 37.63 36.71 40.57 33.77 45.03 29.31 45.03 18.84 45.03 18.59 50.26 18.59 50.26 15.17 36 5.38 21.74 15.17 21.74 18.59 26.97 18.59 26.97 18.84 26.97 29.31 31.43 33.77 34.37 36.71 31.43 39.66 26.97 44.11 26.97 54.58 21.74 51.41 21.74 54.83 36 69.09 50.26 54.83 50.26 51.41"></polygon>
                        <polygon id="Shape" fill="#9D5025" points="27.71 36.71 27.71 33.29 13.45 29.27 0.45 29.27 0.45 44.15 13.45 44.15 13.45 50.97"></polygon>
                        <polygon id="Shape" fill="#9D5025" points="71.55 29.27 58.56 29.27 44.29 33.29 44.29 36.71 58.56 50.97 58.56 44.15 71.55 44.15"></polygon>
                        <polygon id="Shape" fill="#F58536" points="45.03 51.16 45.03 40.69 40.57 36.23 37.63 33.29 40.57 30.34 45.03 25.89 45.03 15.42 45.03 15.17 50.26 15.17 36 0.91 21.74 15.17 26.97 15.17 26.97 15.42 26.97 25.89 31.43 30.34 34.37 33.29 31.43 36.23 26.97 40.69 26.97 51.16 26.97 51.41 21.74 51.41 36 65.67 50.26 51.41 45.03 51.41"></polygon>
                        <polygon id="Shape" fill="#F58536" points="27.71 33.29 13.45 19.02 13.45 25.85 0.45 25.85 0.45 40.73 13.45 40.73 13.45 47.55"></polygon>
                        <polygon id="Shape" fill="#F58536" points="71.55 25.85 58.56 25.85 58.56 19.02 44.29 33.29 58.56 47.55 58.56 40.73 71.55 40.73"></polygon>
                    </g>
                </g>
            </g>
            <g id="Database/AmazonRDS/AmazonRDS" transform="translate(225.000000, 0.000000)">
                <g id="Group">
                    <g fill-rule="nonzero">
                        <polygon id="Shape" fill="#2E73B8" points="64 15.91 56 7.12 44.72 36 56 64.86 64 56.09"></polygon>
                        <polygon id="Shape" fill="#5294CF" points="42 72 56 64.86 56 7.12 42 0 25.38 36"></polygon>
                        <polygon id="Shape" fill="#2E73B8" points="22 72 42 72 42 0 22 0 10 36"></polygon>
                        <polygon id="Shape" fill="#205B99" points="8 64.85 22 72 22 0 8 7.12 1.81 36"></polygon>
                        <polygon id="Shape" fill="#19486F" points="0 56.09 8 64.85 8 7.12 0 15.91"></polygon>
                    </g>
                </g>
            </g>
            <g id="Database/AmazonElasticCache/Redis" transform="translate(335.000000, 9.000000)">
                <g id="Group">
                    <g fill-rule="nonzero">
                        <rect id="Rectangle-path" fill="#19486F" x="0.5" y="2.74" width="53" height="53" rx="9.12"></rect>
                        <rect id="Rectangle-path" fill="#2E73B8" x="0.5" y="0.26" width="53" height="53" rx="9.12"></rect>
                        <polygon id="Shape" fill="#FFFFFF" points="46 17 46 13 41 13 41 8 37 8 37 13 35 13 35 8 31 8 31 13 29 13 29 8 25 8 25 13 23 13 23 8 19 8 19 13 17 13 17 8 13 8 13 13 8 13 8 17 13 17 13 19 8 19 8 23 13 23 13 25 8 25 8 29 13 29 13 31 8 31 8 35 13 35 13 37 8 37 8 41 13 41 13 46 17 46 17 41 19 41 19 46 23 46 23 41 25 41 25 46 29 46 29 41 31 41 31 46 35 46 35 41 37 41 37 46 41 46 41 41 46 41 46 37 41 37 41 35 46 35 46 31 41 31 41 29 46 29 46 25 41 25 41 23 46 23 46 19 41 19 41 17"></polygon>
                        <path d="M19,18 L28.93,18 C30.2515273,17.917898 31.5465787,18.3958399 32.4979393,19.316757 C33.4492998,20.237674 33.9690935,21.516502 33.93,22.84 C34.0307047,24.811383 32.8032488,26.6075602 30.93,27.23 L30.93,27.28 C32.93,27.77 33.55,29.84 33.68,31.61 C33.75,32.72 33.88,34.99 34.58,35.99 L30.74,35.99 C30.27,34.99 30.32,33.12 30.12,31.71 C29.85,29.86 29.12,28.99 27.12,28.99 L23,28.99 L23,35.99 L19,35.99 L19,18 Z M23,26 L27.53,26 C29.27,26 30.22,25.24 30.22,23.46 C30.22,21.68 29.27,21 27.53,21 L23,21 L23,26 Z" id="Shape" fill="#2E73B8"></path>
                    </g>
                </g>
            </g>
            <rect id="Rectangle-2" x="0" y="3" width="511" height="63"></rect>
        </g>
    </g>
</svg>